<?xml version='1.0' encoding='utf-8'?>
<svg xmlns="http://www.w3.org/2000/svg" width="1536" height="1000" viewBox="0 0 1536 1000" preserveAspectRatio="xMidYMid slice" fill="none">
  <title>AdaPenyu deep ocean — coral and rounded reef stones</title>
  <desc>An editable deep ocean background that continues the layered blue hero reef. Subtle organic currents fill the water; coral, seaweed and smooth rocks frame the lower corners. No page content is included.</desc>
  <defs>
    <linearGradient id="rear-reef" x1="0%" y1="0%" x2="0%" y2="100%">
      <stop offset="0" stop-color="#294C63" />
      <stop offset="1" stop-color="#1A3B50" />
    </linearGradient>
    <linearGradient id="middle-reef" x1="0%" y1="0%" x2="0%" y2="100%">
      <stop offset="0" stop-color="#224960" />
      <stop offset="1" stop-color="#14374D" />
    </linearGradient>
    <linearGradient id="lower-reef" x1="0%" y1="0%" x2="0%" y2="100%">
      <stop offset="0" stop-color="#193F57" />
      <stop offset="1" stop-color="#102F43" />
    </linearGradient>
    <linearGradient id="front-reef" x1="0%" y1="0%" x2="0%" y2="100%">
      <stop offset="0" stop-color="#123349" />
      <stop offset="1" stop-color="#092333" />
    </linearGradient>
    <linearGradient id="foreground-plants" x1="0%" y1="0%" x2="0%" y2="100%">
      <stop offset="0" stop-color="#0C2B3F" />
      <stop offset="1" stop-color="#061C2B" />
    </linearGradient>
    <linearGradient id="distant-coral" x1="0%" y1="0%" x2="0%" y2="100%">
      <stop offset="0" stop-color="#31576E" />
      <stop offset="1" stop-color="#23485D" />
    </linearGradient>
    <linearGradient id="stone-body" x1="0%" y1="0%" x2="0%" y2="100%">
      <stop offset="0" stop-color="#315369" />
      <stop offset=".55" stop-color="#23485D" />
      <stop offset="1" stop-color="#17384C" />
    </linearGradient>
    <linearGradient id="stone-front" x1="0%" y1="0%" x2="0%" y2="100%">
      <stop offset="0" stop-color="#23485E" />
      <stop offset="1" stop-color="#0D2A3D" />
    </linearGradient>
    <linearGradient id="pattern-fade" x1="0%" y1="0%" x2="0%" y2="100%">
      <stop offset="0" stop-color="#666666" />
      <stop offset=".18" stop-color="#FFFFFF" />
      <stop offset=".7" stop-color="#B0B0B0" />
      <stop offset="1" stop-color="#000000" />
    </linearGradient>
    <mask id="current-depth-fade" maskUnits="userSpaceOnUse" x="0" y="0" width="1536" height="1000">
      <rect width="1536" height="1000" fill="url(#pattern-fade)" />
    </mask>
    <clipPath id="deep-ocean-bounds">
      <rect width="1536" height="1000" />
    </clipPath>
  </defs>
  <g id="deep-ocean-scene" clip-path="url(#deep-ocean-bounds)">
    <rect id="water-background" width="1536" height="1000" fill="#0B2E46" />
    <g id="organic-water-currents" mask="url(#current-depth-fade)">
      <g transform="scale(1 1.111111)" fill="#284158" opacity=".55">
        <path d="M0 0H114C160 47 191 53 261 73C350 97 392 151 341 205C301 248 223 237 187 276C148 318 188 364 242 392C303 424 340 479 304 534C272 582 201 602 168 652C132 706 165 764 223 797C258 817 283 854 278 900H190C199 854 155 837 121 811C58 763 33 702 65 643C104 573 181 554 211 513C242 469 197 449 152 426C73 385 34 313 77 252C119 194 209 189 244 163C266 145 243 128 211 119C113 93 55 57 0 0Z" id="flowing-current-1" />
        <path d="M398 0H516C559 57 548 102 506 147C456 199 416 247 430 294C449 356 541 355 568 421C592 478 548 533 515 579C479 629 471 678 509 721C557 775 578 835 551 900H461C491 831 456 790 424 747C378 687 382 620 420 564C453 515 490 477 472 442C451 401 372 386 350 319C327 249 366 188 410 139C454 90 467 61 398 0Z" id="flowing-current-2" />
        <path d="M770 0H874C840 47 852 96 904 125C966 160 1004 199 977 255C948 315 855 326 831 372C807 418 851 463 899 489C955 519 981 564 953 609C915 670 825 663 803 715C781 766 838 810 863 845C877 865 881 884 878 900H788C795 858 741 830 718 788C688 733 706 681 750 650C792 620 852 603 861 577C871 548 818 535 791 508C739 457 716 401 751 348C791 287 877 281 891 241C904 204 846 191 806 157C754 112 739 54 770 0Z" id="flowing-current-3" />
        <path d="M1187 0H1286C1272 48 1297 74 1350 104C1422 145 1437 202 1398 259C1357 320 1291 352 1296 397C1301 445 1373 471 1402 526C1438 594 1377 636 1334 675C1288 717 1301 773 1348 815C1372 837 1400 869 1402 900H1308C1305 858 1252 840 1228 794C1194 729 1210 678 1260 632C1304 591 1333 575 1317 547C1287 493 1219 468 1215 400C1211 328 1274 288 1313 238C1349 192 1326 162 1281 138C1208 99 1170 55 1187 0Z" id="flowing-current-4" />
      </g>
      <path id="wide-left-current" fill="#26435A" d="M-180 276C-18 204 46 204 117 254C191 307 170 358 124 397C63 448-46 471-5 543C30 605 181 602 218 677C253 748 166 799 96 838C23 879 8 943 75 1037H-55C-126 933-108 858-13 794C45 755 131 734 115 692C100 654-43 650-92 578C-164 471-63 416 31 372C98 341 91 306 54 282C7 251-61 272-180 333Z" opacity=".38" />
      <path id="wide-right-current" fill="#26435A" d="M1438-70C1340 69 1292 181 1354 266C1392 318 1486 326 1506 389C1529 460 1451 504 1364 549C1268 600 1256 685 1314 751C1353 795 1440 808 1470 873C1499 933 1462 993 1408 1050H1518C1576 979 1592 907 1551 837C1512 771 1417 752 1391 706C1360 651 1394 615 1477 572C1574 521 1621 453 1597 374C1575 301 1481 278 1451 233C1411 174 1458 71 1538-70Z" opacity=".38" />
    </g>
    <g id="distant-layered-reef" transform="translate(0 690) scale(1 1.033334)">
      <path id="distant-reef-contour" fill="url(#rear-reef)" d="M0 0C36 17 70 30 98 59C128 90 134 118 166 128C197 137 226 137 251 151C280 166 292 194 323 204C349 213 370 199 404 205C441 211 457 232 486 247C516 262 549 255 581 247C614 238 642 233 669 238C704 244 736 260 770 253C804 246 827 237 854 241C884 244 907 258 936 251C968 243 997 219 1031 207C1072 192 1110 195 1147 207C1183 218 1216 208 1244 202C1281 196 1306 180 1333 157C1365 130 1392 117 1427 107C1469 95 1501 90 1536 72V300H0Z" />
      <path id="left-reef-soft-rim" fill="#41627A" d="M0 0C36 17 70 30 98 59C128 90 134 118 166 128C194 136 223 137 244 147C200 141 169 158 142 143C112 127 111 93 85 66C59 39 27 30 0 22Z" opacity="0.2" />
      <path id="right-reef-soft-rim" fill="#41627A" d="M1244 202C1281 196 1306 180 1333 157C1365 130 1392 117 1427 107C1469 95 1501 90 1536 72V84C1500 103 1470 107 1436 116C1398 126 1374 142 1344 168C1311 197 1283 209 1244 213Z" opacity="0.2" />
      <path id="middle-reef-contour" fill="url(#middle-reef)" d="M0 37C28 48 39 70 65 80C94 92 99 109 103 133C106 166 127 179 167 184C216 191 254 205 291 217C329 229 360 222 396 231C428 239 452 263 486 259C520 255 538 249 568 257C597 265 624 274 656 269C688 264 710 268 736 277C765 287 793 279 823 272C851 265 880 274 909 267C945 259 974 243 1007 235C1042 226 1080 226 1113 234C1149 243 1172 249 1206 242C1243 235 1267 233 1295 223C1339 207 1368 199 1393 173C1431 133 1474 113 1536 104V300H0Z" />
      <path id="left-rocky-ledge" fill="url(#lower-reef)" d="M0 37C28 48 39 70 65 80C95 93 100 109 103 137C106 167 126 180 165 185C207 191 243 204 281 216C319 228 348 239 378 243C410 246 438 261 467 277C482 286 497 294 508 300H0Z" />
      <path id="low-reef-contour" fill="#1B4058" d="M261 229C304 217 339 226 376 240C411 253 430 261 457 260C488 259 517 251 545 258C577 266 600 280 633 277C674 273 692 259 732 268C763 275 794 293 824 286C858 278 887 263 918 267C954 272 981 264 1013 250C1045 236 1074 245 1103 257C1131 269 1159 272 1191 266L1233 300H261Z" opacity="0.65" />
      <g id="small-distant-left-coral" fill="#31576E" opacity="0.65">
        <path d="M214 232C217 215 211 201 207 191C203 183 193 180 191 174C189 169 192 166 196 167C202 168 205 176 209 178C208 169 202 162 205 157C208 153 215 154 217 161C219 168 215 177 217 183C222 178 222 167 226 162C230 157 237 156 241 160C245 165 239 172 234 176C227 182 223 188 222 196C229 193 233 181 239 180C245 178 249 182 247 187C244 195 231 196 225 202C221 207 224 222 224 232Z" />
        <path d="M249 237C250 224 247 216 244 210C238 209 234 208 234 203C234 199 239 198 243 200C247 202 249 206 251 209C255 202 250 193 254 189C258 186 264 188 264 193C264 200 257 207 258 214C264 212 267 206 273 207C277 208 280 212 278 216C275 222 264 219 258 223L260 237Z" />
      </g>
      <g id="small-distant-right-coral" fill="#31576E" transform="translate(0 -9)" opacity="0.55">
        <path d="M986 298C979 289 970 285 973 277C976 270 987 274 990 269C994 261 974 252 975 242C976 229 990 225 1004 228C1027 232 1021 246 1014 258C1007 270 1007 280 1013 287C1021 292 1026 289 1030 286C1034 282 1031 274 1037 273C1044 272 1048 279 1046 287C1044 293 1047 297 1048 300Z" />
        <path d="M1040 300C1045 281 1045 269 1040 258C1036 252 1035 245 1040 241C1045 237 1049 242 1050 249C1051 254 1049 258 1052 262C1057 252 1055 240 1061 231C1067 222 1073 225 1074 232C1076 244 1061 255 1062 268C1069 265 1072 255 1079 254C1086 253 1091 260 1087 266C1082 273 1066 271 1060 280C1058 286 1060 294 1063 300Z" />
        <path d="M1095 254C1101 255 1104 251 1105 247C1102 248 1098 249 1095 254ZM1107 237C1113 238 1118 235 1120 230C1114 230 1110 233 1107 237Z" />
      </g>
    </g>
    <g id="mid-distance-coral">
      <g id="left-rounded-branch-coral" transform="translate(99 650) scale(.9 1.04)">
        <path d="M111 266C119 226 102 202 91 181C76 167 54 167 47 149C42 135 52 126 60 136C67 146 74 155 83 155C82 129 67 115 70 100C74 85 85 92 88 106C93 129 103 142 116 152C124 131 107 105 108 85C109 70 120 65 127 77C135 91 124 111 133 126C143 112 145 89 154 75C165 61 177 69 171 83C161 107 151 119 151 139C165 138 174 113 187 110C200 107 206 119 195 128C179 141 160 149 152 165C146 178 160 193 172 184C187 174 184 155 197 151C210 148 216 161 206 172C195 186 172 198 154 209C146 222 155 251 160 266Z" fill="url(#distant-coral)" id="left-rounded-branch-coral-shape-4" />
      </g>
      <g id="right-finger-coral" transform="translate(1260 676) scale(.78 1.05)">
        <path d="M58 243C43 223 43 191 49 164L46 107C44 83 61 70 72 83C84 99 72 132 78 154C91 139 88 112 91 82C91 58 109 46 117 64C124 80 116 111 120 128C133 118 128 89 132 66C136 43 155 42 159 61C164 81 153 113 157 133C171 120 170 100 177 89C187 75 201 82 198 100C196 120 180 146 185 165C194 159 201 138 211 132C224 125 233 136 226 150C211 175 201 187 196 212C193 224 192 235 186 243Z" fill="url(#distant-coral)" id="right-finger-coral-shape-4" />
      </g>
      <g id="left-distant-kelp" transform="translate(-37 603) scale(.72 1.06)">
        <path d="M77 308C94 278 99 254 88 227C74 192 50 167 57 129C61 106 80 85 76 62C73 47 72 31 82 26C101 38 115 64 107 85C94 114 85 137 99 164C117 199 136 222 126 256C119 280 109 292 111 308Z" fill="#23495F" id="left-distant-kelp-shape-4" />
      </g>
      <g id="right-distant-kelp" transform="translate(1536 590) scale(-.68 1.12)">
        <path d="M77 308C94 278 99 254 88 227C74 192 50 167 57 129C61 106 80 85 76 62C73 47 72 31 82 26C101 38 115 64 107 85C94 114 85 137 99 164C117 199 136 222 126 256C119 280 109 292 111 308Z" fill="#23495F" id="right-distant-kelp-shape-4" />
      </g>
    </g>
    <g id="rounded-reef-stones">
      <g id="left-large-stone">
        <path id="left-large-stone-body" fill="url(#stone-body)" d="M132 950C139 917 150 875 180 863C197 837 231 826 260 831C278 826 301 838 311 857C342 862 365 887 368 913C391 922 402 939 400 961C318 971 213 975 132 950Z" />
        <path id="left-large-stone-rounded-ridge" fill="#40657B" d="M170 880C194 846 226 838 256 843C276 839 294 846 304 860C281 855 258 863 241 878C223 895 219 914 220 933C204 937 183 932 170 927C164 910 163 895 170 880Z" opacity=".28" />
      </g>
      <g id="right-large-stone">
        <path id="right-large-stone-body" fill="url(#stone-body)" d="M1188 948C1193 919 1210 896 1236 885C1240 853 1267 831 1298 834C1312 811 1344 806 1365 825C1399 822 1430 847 1436 878C1463 886 1483 913 1480 939C1436 962 1349 976 1262 968Z" />
        <path id="right-large-stone-rounded-ridge" fill="#40657B" d="M1244 894C1246 864 1269 846 1297 848C1316 826 1340 824 1357 839C1334 841 1322 860 1317 880C1311 904 1314 920 1321 940C1297 947 1262 936 1244 920Z" opacity=".24" />
      </g>
      <path id="left-low-stone" fill="url(#stone-front)" d="M282 977C292 953 315 940 339 943C359 928 385 932 395 949C417 946 443 960 448 980C401 998 320 997 282 977Z" />
      <path id="right-low-stone" fill="url(#stone-front)" d="M1107 984C1115 963 1136 954 1155 954C1174 937 1205 938 1220 956C1243 955 1258 969 1263 988C1217 1000 1146 1001 1107 984Z" />
    </g>
    <g id="foreground-seabed" transform="translate(0 690) scale(1 1.033334)">
      <path id="foreground-reef-contour" fill="url(#front-reef)" d="M0 287C53 280 84 282 119 264C157 244 192 223 233 231C278 239 305 261 344 269C381 277 410 258 447 253C486 248 514 239 547 248C580 257 593 278 629 284C665 290 696 283 727 273C759 263 787 259 816 264C852 270 879 289 913 288C949 287 976 293 1008 293C1041 292 1067 287 1093 267C1129 239 1155 221 1193 222C1235 222 1267 235 1300 248C1335 262 1372 281 1407 275C1450 267 1487 253 1536 267V300H0Z" />
      <path id="lowest-seabed-contour" fill="#092333" d="M0 300C54 290 92 296 135 283C168 273 198 264 227 268C260 272 286 288 320 290C354 293 383 279 414 275C449 269 478 275 507 288C541 303 580 300 613 296C649 291 680 291 711 299C756 312 795 299 835 296C875 293 910 298 946 300C1002 304 1038 300 1077 283C1113 267 1143 257 1172 262C1207 268 1236 283 1272 292C1306 301 1335 300 1367 290C1405 278 1435 280 1471 288C1498 294 1517 292 1536 288V300Z" />
    </g>
    <g id="foreground-coral-and-seaweed" transform="translate(0 690) scale(1 1.033334)">
      <g id="left-seaweed-cluster" fill="url(#foreground-plants)">
        <path d="M0 300V178C10 191 8 211 12 222C18 232 24 224 24 213C26 197 17 188 17 170C17 153 31 140 30 124C30 114 23 98 28 94C33 90 44 101 49 108C64 129 54 144 48 158C40 176 51 192 52 207C54 226 36 240 31 256C26 273 33 286 30 300Z" />
        <path d="M49 300C48 285 56 270 60 253C64 238 57 226 62 209C65 197 65 183 72 177C79 170 87 172 85 181C82 194 86 207 86 220C86 240 69 252 70 268C71 283 82 290 80 300Z" />
        <path d="M77 300C85 280 89 267 89 251C89 240 94 231 98 221C106 235 104 248 104 261C112 242 116 221 120 201C125 177 133 154 146 146C153 141 163 141 170 139C158 150 153 165 151 181C149 199 136 214 130 231C122 252 117 278 103 300Z" />
        <path d="M99 296C117 275 122 252 140 229C153 212 163 200 178 195C168 210 167 226 155 239C140 255 117 266 109 287Z" />
        <path d="M91 300C113 279 132 267 154 261C146 273 134 279 120 285C109 290 106 295 103 300Z" />
        <path d="M52 300C56 283 48 267 52 251C56 238 63 235 67 236C65 249 68 262 64 275C61 285 64 294 65 300Z" />
      </g>
      <g id="right-coral-cluster" fill="url(#foreground-plants)">
        <path d="M1465 300C1469 285 1466 273 1460 260C1453 246 1446 230 1448 217C1449 211 1454 209 1458 214C1466 224 1464 236 1472 241C1477 227 1468 209 1459 199C1451 190 1443 184 1444 174C1444 167 1449 164 1453 169C1458 175 1458 187 1467 194C1470 180 1465 158 1472 150C1477 144 1483 149 1484 156C1488 172 1480 189 1486 207C1494 201 1492 186 1498 177C1504 168 1511 172 1512 181C1515 197 1502 213 1501 227C1500 238 1502 246 1505 254C1512 239 1518 224 1525 212C1531 201 1539 205 1539 214C1539 230 1528 243 1520 256C1512 272 1511 289 1514 300Z" />
        <path d="M1469 294C1460 282 1451 276 1440 276C1428 277 1421 274 1420 269C1418 262 1425 257 1431 260C1438 263 1440 268 1446 265C1444 258 1436 255 1432 247C1428 240 1430 232 1435 232C1443 232 1446 248 1453 252C1456 243 1454 232 1460 230C1467 228 1473 236 1471 244C1467 260 1474 275 1482 291Z" />
        <path d="M1437 290C1425 283 1414 279 1407 269C1400 259 1398 248 1391 247C1384 246 1383 254 1387 261C1391 268 1396 272 1396 276C1385 274 1378 262 1374 261C1367 259 1368 266 1372 273C1379 284 1400 288 1404 300H1439Z" />
        <path d="M1416 250C1410 246 1407 239 1403 232C1399 225 1399 215 1404 213C1410 211 1416 222 1418 229C1421 237 1417 242 1420 249C1426 247 1427 237 1432 236C1438 235 1440 241 1437 246C1433 253 1422 254 1416 250Z" />
        <path d="M1511 300C1518 280 1532 269 1546 264V300Z" />
      </g>
      <path id="small-seabed-coral" fill="#0C2C40" d="M362 280C365 274 365 269 362 265C358 262 349 264 347 257C345 251 351 246 356 248C360 249 362 254 365 255C365 247 370 239 377 242C384 244 384 251 384 255C391 255 394 260 390 265C387 269 381 267 378 270L378 280Z" />
    </g>
    <g id="small-foreground-stones">
      <path id="left-pebble" fill="#102F43" d="M414 988C414 978 422 970 434 971C440 962 455 962 461 972C475 974 481 981 480 990C456 996 433 996 414 988Z" />
      <path id="right-pebble" fill="#102F43" d="M1040 997C1044 983 1054 975 1068 978C1082 967 1105 973 1108 986C1120 987 1127 993 1126 1000Z" />
    </g>
  </g>
</svg>